<svg width="1200" height="630" viewBox="0 0 1200 630" fill="none" xmlns="http://www.w3.org/2000/svg">
  <rect width="1200" height="630" fill="#09090b"/>
  <!-- Grid lines -->
  <line x1="80" y1="0" x2="80" y2="630" stroke="#27272a" stroke-width="0.5"/>
  <line x1="160" y1="0" x2="160" y2="630" stroke="#27272a" stroke-width="0.5"/>
  <line x1="240" y1="0" x2="240" y2="630" stroke="#27272a" stroke-width="0.5"/>
  <line x1="320" y1="0" x2="320" y2="630" stroke="#27272a" stroke-width="0.5"/>
  <line x1="400" y1="0" x2="400" y2="630" stroke="#27272a" stroke-width="0.5"/>
  <line x1="480" y1="0" x2="480" y2="630" stroke="#27272a" stroke-width="0.5"/>
  <line x1="560" y1="0" x2="560" y2="630" stroke="#27272a" stroke-width="0.5"/>
  <line x1="640" y1="0" x2="640" y2="630" stroke="#27272a" stroke-width="0.5"/>
  <line x1="720" y1="0" x2="720" y2="630" stroke="#27272a" stroke-width="0.5"/>
  <line x1="800" y1="0" x2="800" y2="630" stroke="#27272a" stroke-width="0.5"/>
  <line x1="880" y1="0" x2="880" y2="630" stroke="#27272a" stroke-width="0.5"/>
  <line x1="960" y1="0" x2="960" y2="630" stroke="#27272a" stroke-width="0.5"/>
  <line x1="1040" y1="0" x2="1040" y2="630" stroke="#27272a" stroke-width="0.5"/>
  <line x1="1120" y1="0" x2="1120" y2="630" stroke="#27272a" stroke-width="0.5"/>
  <line x1="0" y1="80" x2="1200" y2="80" stroke="#27272a" stroke-width="0.5"/>
  <line x1="0" y1="160" x2="1200" y2="160" stroke="#27272a" stroke-width="0.5"/>
  <line x1="0" y1="240" x2="1200" y2="240" stroke="#27272a" stroke-width="0.5"/>
  <line x1="0" y1="320" x2="1200" y2="320" stroke="#27272a" stroke-width="0.5"/>
  <line x1="0" y1="400" x2="1200" y2="400" stroke="#27272a" stroke-width="0.5"/>
  <line x1="0" y1="480" x2="1200" y2="480" stroke="#27272a" stroke-width="0.5"/>
  <line x1="0" y1="560" x2="1200" y2="560" stroke="#27272a" stroke-width="0.5"/>
  <!-- Orange accent line -->
  <rect x="80" y="200" width="4" height="120" fill="#ea580c"/>
  <!-- Brand name -->
  <text x="120" y="260" font-family="monospace" font-weight="700" font-size="72" fill="#fafafa" letter-spacing="0.2em">MERIDIAN</text>
  <!-- Tagline -->
  <text x="120" y="310" font-family="monospace" font-size="18" fill="#71717a" letter-spacing="0.15em">PROCESS INTELLIGENCE FOR MODERN TEAMS</text>
  <!-- Bottom bar -->
  <rect x="0" y="590" width="1200" height="40" fill="#18181b"/>
  <text x="80" y="616" font-family="monospace" font-size="11" fill="#52525b" letter-spacing="0.15em">SOC 2 TYPE II  ·  GDPR  ·  99.9% UPTIME SLA</text>
</svg>
